<?xml version="1.0" encoding="utf-8"?>
<!-- Generator: Adobe Illustrator 25.2.1, SVG Export Plug-In . SVG Version: 6.00 Build 0)  -->
<svg version="1.1" id="Layer_1" xmlns="http://www.w3.org/2000/svg" xmlns:xlink="http://www.w3.org/1999/xlink" x="0px" y="0px"
	 viewBox="0 0 1265.6 1084.5" style="enable-background:new 0 0 1265.6 1084.5;" xml:space="preserve">
<style type="text/css">
	.st0{fill:#F2F2F2;}
	.st1{fill:#EDDA6B;}
	.st2{opacity:0.54;fill:url(#SVGID_1_);}
	.st3{opacity:0.54;fill:url(#SVGID_2_);}
	.st4{opacity:0.54;fill:url(#SVGID_3_);}
	.st5{opacity:0.54;fill:url(#SVGID_4_);}
</style>
<g id="jcaKEd.tif">
	
		<image style="overflow:visible;" width="204" height="210" id="Layer_0_1_" xlink:href="7AAE210A01494A0F.png"  transform="matrix(6.204 0 0 5.1643 0 0)">
	</image>
</g>
<g id="jcaKEd.tif_1_">
	
		<image style="overflow:visible;" width="204" height="210" id="Layer_0_2_" xlink:href="7AAE210A01494A0A.png"  transform="matrix(6.204 0 0 5.1643 0 0)">
	</image>
</g>
<g>
	<g>
		<circle class="st0" cx="236" cy="141.9" r="2.9"/>
		<circle class="st0" cx="161.9" cy="159" r="1.5"/>
		<circle class="st0" cx="229.2" cy="182.9" r="2.9"/>
		<circle class="st0" cx="292.4" cy="225.1" r="1.5"/>
		<circle class="st0" cx="528" cy="86.2" r="2.9"/>
		<circle class="st0" cx="453.9" cy="103.4" r="1.5"/>
		<circle class="st0" cx="521.2" cy="127.2" r="2.9"/>
		<circle class="st0" cx="584.4" cy="169.5" r="1.5"/>
		<circle class="st0" cx="450.5" cy="183.4" r="2.9"/>
		<circle class="st0" cx="498.3" cy="242.6" r="1.5"/>
		<circle class="st0" cx="490.3" cy="171.7" r="2.9"/>
		<circle class="st0" cx="500.7" cy="96.4" r="1.5"/>
		<circle class="st0" cx="150.8" cy="316.8" r="2.9"/>
		<circle class="st0" cx="76.7" cy="333.9" r="1.5"/>
		<circle class="st0" cx="143.9" cy="357.8" r="2.9"/>
		<circle class="st0" cx="207.2" cy="400" r="1.5"/>
		<circle class="st0" cx="73.2" cy="414" r="2.9"/>
		<circle class="st0" cx="121" cy="473.2" r="1.5"/>
		<circle class="st0" cx="113.1" cy="402.3" r="2.9"/>
		<circle class="st0" cx="123.5" cy="326.9" r="1.5"/>
		<circle class="st1" cx="121.6" cy="439.1" r="2"/>
		<circle class="st1" cx="174.1" cy="340.6" r="1.5"/>
		<circle class="st1" cx="215" cy="228.1" r="1.5"/>
		<circle class="st1" cx="361.8" cy="362.1" r="1.5"/>
		<circle class="st1" cx="352.2" cy="505" r="1.8"/>
		<circle class="st1" cx="439.2" cy="438.1" r="1"/>
		<circle class="st1" cx="473.1" cy="408.1" r="2.9"/>
		<circle class="st1" cx="535.1" cy="195.2" r="1.6"/>
		<circle class="st1" cx="560.4" cy="135.1" r="1.1"/>
		<circle class="st1" cx="401.2" cy="147.5" r="2.7"/>
		<circle class="st1" cx="473.4" cy="67.7" r="1.5"/>
		<circle class="st1" cx="58.2" cy="162.7" r="2.2"/>
		<circle class="st0" cx="601.5" cy="517.5" r="2.9"/>
		<circle class="st0" cx="581.3" cy="444.1" r="1.5"/>
		<circle class="st0" cx="560.3" cy="512.3" r="2.9"/>
		<circle class="st0" cx="501.2" cy="444" r="2.9"/>
		<circle class="st0" cx="444" cy="494.2" r="1.5"/>
		<circle class="st0" cx="514.5" cy="483.3" r="2.9"/>
		<circle class="st0" cx="590.2" cy="490.6" r="1.5"/>
		<circle class="st1" cx="492.9" cy="529" r="1.6"/>
		<circle class="st1" cx="554" cy="551.8" r="1.1"/>
		<circle class="st1" cx="535" cy="393.2" r="2.7"/>
		<circle class="st1" cx="617.8" cy="462.1" r="1.5"/>
		<circle class="st0" cx="289.5" cy="334.5" r="1.5"/>
		<circle class="st0" cx="522.6" cy="309.9" r="1.5"/>
		<circle class="st0" cx="498.5" cy="215.7" r="1.5"/>
		<circle class="st0" cx="384.1" cy="168.7" r="1.5"/>
		<circle class="st0" cx="272.1" cy="141.8" r="1.5"/>
		<circle class="st0" cx="159.4" cy="181" r="1.5"/>
		<circle class="st0" cx="142.6" cy="309.3" r="1.5"/>
		<circle class="st0" cx="197" cy="456.1" r="1.5"/>
		<circle class="st0" cx="287.8" cy="511.6" r="1.5"/>
		<circle class="st0" cx="315.2" cy="463.4" r="1.5"/>
		<circle class="st0" cx="404.3" cy="393.9" r="1.5"/>
		<circle class="st0" cx="456.4" cy="295.9" r="1.5"/>
		<circle class="st0" cx="602.1" cy="122.2" r="1.5"/>
	</g>
	<g>
		<circle class="st0" cx="529.7" cy="328" r="2.9"/>
		<circle class="st0" cx="455.6" cy="345.1" r="1.5"/>
		<circle class="st0" cx="522.8" cy="369" r="2.9"/>
		<circle class="st0" cx="586" cy="411.2" r="1.5"/>
		<circle class="st0" cx="821.7" cy="272.3" r="2.9"/>
		<circle class="st0" cx="747.6" cy="289.5" r="1.5"/>
		<circle class="st0" cx="814.8" cy="313.3" r="2.9"/>
		<circle class="st0" cx="878" cy="355.6" r="1.5"/>
		<circle class="st0" cx="744.1" cy="369.5" r="2.9"/>
		<circle class="st0" cx="791.9" cy="428.7" r="1.5"/>
		<circle class="st0" cx="784" cy="357.8" r="2.9"/>
		<circle class="st0" cx="794.4" cy="282.5" r="1.5"/>
		<circle class="st0" cx="444.5" cy="502.9" r="2.9"/>
		<circle class="st0" cx="370.4" cy="520" r="1.5"/>
		<circle class="st0" cx="437.6" cy="543.9" r="2.9"/>
		<circle class="st0" cx="500.8" cy="586.1" r="1.5"/>
		<circle class="st0" cx="366.9" cy="600.1" r="2.9"/>
		<circle class="st0" cx="414.7" cy="659.3" r="1.5"/>
		<circle class="st0" cx="406.8" cy="588.4" r="2.9"/>
		<circle class="st0" cx="417.2" cy="513" r="1.5"/>
		<circle class="st1" cx="415.2" cy="625.2" r="2"/>
		<circle class="st1" cx="467.8" cy="526.7" r="1.5"/>
		<circle class="st1" cx="508.6" cy="414.2" r="1.5"/>
		<circle class="st1" cx="655.4" cy="548.2" r="1.5"/>
		<circle class="st1" cx="645.9" cy="691.1" r="1.8"/>
		<circle class="st1" cx="732.9" cy="624.2" r="1"/>
		<circle class="st1" cx="766.8" cy="594.2" r="2.9"/>
		<circle class="st1" cx="828.8" cy="381.3" r="1.6"/>
		<circle class="st1" cx="854" cy="321.1" r="1.1"/>
		<circle class="st1" cx="694.8" cy="333.6" r="2.7"/>
		<circle class="st1" cx="767" cy="253.8" r="1.5"/>
		<circle class="st1" cx="351.9" cy="348.8" r="2.2"/>
		<circle class="st0" cx="895.2" cy="703.6" r="2.9"/>
		<circle class="st0" cx="875" cy="630.2" r="1.5"/>
		<circle class="st0" cx="853.9" cy="698.4" r="2.9"/>
		<circle class="st0" cx="794.8" cy="630.1" r="2.9"/>
		<circle class="st0" cx="737.7" cy="680.3" r="1.5"/>
		<circle class="st0" cx="808.2" cy="669.4" r="2.9"/>
		<circle class="st0" cx="883.9" cy="676.7" r="1.5"/>
		<circle class="st1" cx="786.6" cy="715.1" r="1.6"/>
		<circle class="st1" cx="847.7" cy="737.9" r="1.1"/>
		<circle class="st1" cx="828.7" cy="579.3" r="2.7"/>
		<circle class="st1" cx="911.4" cy="648.2" r="1.5"/>
		<circle class="st0" cx="583.1" cy="520.6" r="1.5"/>
		<circle class="st0" cx="816.2" cy="496" r="1.5"/>
		<circle class="st0" cx="792.1" cy="401.8" r="1.5"/>
		<circle class="st0" cx="677.8" cy="354.8" r="1.5"/>
		<circle class="st0" cx="565.7" cy="327.9" r="1.5"/>
		<circle class="st0" cx="453.1" cy="367.1" r="1.5"/>
		<circle class="st0" cx="436.3" cy="495.4" r="1.5"/>
		<circle class="st0" cx="490.6" cy="642.2" r="1.5"/>
		<circle class="st0" cx="581.4" cy="697.7" r="1.5"/>
		<circle class="st0" cx="608.9" cy="649.5" r="1.5"/>
		<circle class="st0" cx="698" cy="580" r="1.5"/>
		<circle class="st0" cx="750.1" cy="482" r="1.5"/>
		<circle class="st0" cx="895.8" cy="308.3" r="1.5"/>
	</g>
	<circle class="st1" cx="81.8" cy="595.1" r="1"/>
	<circle class="st1" cx="115.7" cy="565.2" r="2.9"/>
	<circle class="st0" cx="244.1" cy="674.5" r="2.9"/>
	<circle class="st0" cx="223.9" cy="601.2" r="1.5"/>
	<circle class="st0" cx="202.9" cy="669.3" r="2.9"/>
	<circle class="st0" cx="143.8" cy="601" r="2.9"/>
	<circle class="st0" cx="86.7" cy="651.2" r="1.5"/>
	<circle class="st0" cx="157.2" cy="640.4" r="2.9"/>
	<circle class="st0" cx="232.9" cy="647.7" r="1.5"/>
	<circle class="st1" cx="135.6" cy="686.1" r="1.6"/>
	<circle class="st1" cx="196.7" cy="708.9" r="1.1"/>
	<circle class="st1" cx="177.6" cy="550.3" r="2.7"/>
	<circle class="st1" cx="260.4" cy="619.1" r="1.5"/>
	<circle class="st0" cx="46.9" cy="551" r="1.5"/>
</g>
<g>
	<g>
		<circle class="st0" cx="677.9" cy="689" r="2.9"/>
		<circle class="st0" cx="695.1" cy="763.1" r="1.5"/>
		<circle class="st0" cx="718.9" cy="695.9" r="2.9"/>
		<circle class="st0" cx="761.2" cy="632.7" r="1.5"/>
		<circle class="st0" cx="622.3" cy="397" r="2.9"/>
		<circle class="st0" cx="639.4" cy="471.1" r="1.5"/>
		<circle class="st0" cx="663.3" cy="403.9" r="2.9"/>
		<circle class="st0" cx="705.5" cy="340.7" r="1.5"/>
		<circle class="st0" cx="719.5" cy="474.6" r="2.9"/>
		<circle class="st0" cx="778.7" cy="426.8" r="1.5"/>
		<circle class="st0" cx="707.8" cy="434.7" r="2.9"/>
		<circle class="st0" cx="632.4" cy="424.3" r="1.5"/>
		<circle class="st0" cx="852.8" cy="774.2" r="2.9"/>
		<circle class="st0" cx="870" cy="848.4" r="1.5"/>
		<circle class="st0" cx="893.8" cy="781.1" r="2.9"/>
		<circle class="st0" cx="936.1" cy="717.9" r="1.5"/>
		<circle class="st0" cx="950.1" cy="851.8" r="2.9"/>
		<circle class="st0" cx="1009.2" cy="804" r="1.5"/>
		<circle class="st0" cx="938.3" cy="811.9" r="2.9"/>
		<circle class="st0" cx="863" cy="801.5" r="1.5"/>
		<circle class="st1" cx="975.1" cy="803.5" r="2"/>
		<circle class="st1" cx="876.6" cy="750.9" r="1.5"/>
		<circle class="st1" cx="764.1" cy="710.1" r="1.5"/>
		<circle class="st1" cx="898.2" cy="563.3" r="1.5"/>
		<circle class="st1" cx="1041" cy="572.8" r="1.8"/>
		<circle class="st1" cx="974.1" cy="485.9" r="1"/>
		<circle class="st1" cx="944.2" cy="451.9" r="2.9"/>
		<circle class="st1" cx="731.2" cy="389.9" r="1.6"/>
		<circle class="st1" cx="671.1" cy="364.7" r="1.1"/>
		<circle class="st1" cx="683.6" cy="523.9" r="2.7"/>
		<circle class="st1" cx="603.7" cy="451.7" r="1.5"/>
		<circle class="st1" cx="698.7" cy="866.8" r="2.2"/>
		<circle class="st0" cx="1053.5" cy="323.6" r="2.9"/>
		<circle class="st0" cx="980.2" cy="343.7" r="1.5"/>
		<circle class="st0" cx="1048.3" cy="364.8" r="2.9"/>
		<circle class="st0" cx="980" cy="423.9" r="2.9"/>
		<circle class="st0" cx="1030.2" cy="481" r="1.5"/>
		<circle class="st0" cx="1019.4" cy="410.5" r="2.9"/>
		<circle class="st0" cx="1026.7" cy="334.8" r="1.5"/>
		<circle class="st1" cx="1065.1" cy="432.1" r="1.6"/>
		<circle class="st1" cx="1087.9" cy="371" r="1.1"/>
		<circle class="st1" cx="929.3" cy="390.1" r="2.7"/>
		<circle class="st1" cx="998.1" cy="307.3" r="1.5"/>
		<circle class="st0" cx="870.6" cy="635.6" r="1.5"/>
		<circle class="st0" cx="845.9" cy="402.5" r="1.5"/>
		<circle class="st0" cx="751.8" cy="426.6" r="1.5"/>
		<circle class="st0" cx="704.7" cy="540.9" r="1.5"/>
		<circle class="st0" cx="677.8" cy="653" r="1.5"/>
		<circle class="st0" cx="717.1" cy="765.6" r="1.5"/>
		<circle class="st0" cx="845.4" cy="782.4" r="1.5"/>
		<circle class="st0" cx="992.2" cy="728.1" r="1.5"/>
		<circle class="st0" cx="1047.7" cy="637.3" r="1.5"/>
		<circle class="st0" cx="999.5" cy="609.8" r="1.5"/>
		<circle class="st0" cx="930" cy="520.7" r="1.5"/>
		<circle class="st0" cx="831.9" cy="468.6" r="1.5"/>
		<circle class="st0" cx="658.2" cy="322.9" r="1.5"/>
	</g>
	<g>
		<circle class="st0" cx="864" cy="395.4" r="2.9"/>
		<circle class="st0" cx="881.2" cy="469.5" r="1.5"/>
		<circle class="st0" cx="905" cy="402.3" r="2.9"/>
		<circle class="st0" cx="947.3" cy="339" r="1.5"/>
		<circle class="st0" cx="808.4" cy="103.4" r="2.9"/>
		<circle class="st0" cx="825.5" cy="177.5" r="1.5"/>
		<circle class="st0" cx="849.4" cy="110.3" r="2.9"/>
		<circle class="st0" cx="891.6" cy="47" r="1.5"/>
		<circle class="st0" cx="905.6" cy="181" r="2.9"/>
		<circle class="st0" cx="964.8" cy="133.1" r="1.5"/>
		<circle class="st0" cx="893.9" cy="141.1" r="2.9"/>
		<circle class="st0" cx="818.5" cy="130.7" r="1.5"/>
		<circle class="st0" cx="1038.9" cy="480.6" r="2.9"/>
		<circle class="st0" cx="1056.1" cy="554.7" r="1.5"/>
		<circle class="st0" cx="1079.9" cy="487.5" r="2.9"/>
		<circle class="st0" cx="1122.2" cy="424.2" r="1.5"/>
		<circle class="st0" cx="1136.1" cy="558.2" r="2.9"/>
		<circle class="st0" cx="1195.3" cy="510.4" r="1.5"/>
		<circle class="st0" cx="1124.4" cy="518.3" r="2.9"/>
		<circle class="st0" cx="1049.1" cy="507.9" r="1.5"/>
		<circle class="st1" cx="1161.2" cy="509.9" r="2"/>
		<circle class="st1" cx="1062.7" cy="457.3" r="1.5"/>
		<circle class="st1" cx="950.2" cy="416.4" r="1.5"/>
		<circle class="st1" cx="1084.3" cy="269.6" r="1.5"/>
		<circle class="st1" cx="1227.1" cy="279.2" r="1.8"/>
		<circle class="st1" cx="1160.2" cy="192.2" r="1"/>
		<circle class="st1" cx="1130.3" cy="158.3" r="2.9"/>
		<circle class="st1" cx="917.3" cy="96.3" r="1.6"/>
		<circle class="st1" cx="857.2" cy="71" r="1.1"/>
		<circle class="st1" cx="869.7" cy="230.2" r="2.7"/>
		<circle class="st1" cx="789.8" cy="158" r="1.5"/>
		<circle class="st1" cx="884.8" cy="573.2" r="2.2"/>
		<circle class="st0" cx="1239.6" cy="29.9" r="2.9"/>
		<circle class="st0" cx="1166.3" cy="50.1" r="1.5"/>
		<circle class="st0" cx="1234.4" cy="71.1" r="2.9"/>
		<circle class="st0" cx="1166.1" cy="130.2" r="2.9"/>
		<circle class="st0" cx="1216.3" cy="187.4" r="1.5"/>
		<circle class="st0" cx="1205.5" cy="116.9" r="2.9"/>
		<circle class="st0" cx="1212.8" cy="41.2" r="1.5"/>
		<circle class="st1" cx="1251.2" cy="138.5" r="1.6"/>
		<circle class="st1" cx="1274" cy="77.4" r="1.1"/>
		<circle class="st1" cx="1115.4" cy="96.4" r="2.7"/>
		<circle class="st1" cx="1184.2" cy="13.6" r="1.5"/>
		<circle class="st0" cx="1056.7" cy="341.9" r="1.5"/>
		<circle class="st0" cx="1032" cy="108.9" r="1.5"/>
		<circle class="st0" cx="937.9" cy="133" r="1.5"/>
		<circle class="st0" cx="890.8" cy="247.3" r="1.5"/>
		<circle class="st0" cx="863.9" cy="359.3" r="1.5"/>
		<circle class="st0" cx="903.2" cy="472" r="1.5"/>
		<circle class="st0" cx="1031.5" cy="488.8" r="1.5"/>
		<circle class="st0" cx="1178.3" cy="434.4" r="1.5"/>
		<circle class="st0" cx="1233.8" cy="343.7" r="1.5"/>
		<circle class="st0" cx="1185.6" cy="316.2" r="1.5"/>
		<circle class="st0" cx="1116.1" cy="227.1" r="1.5"/>
		<circle class="st0" cx="1018" cy="175" r="1.5"/>
		<circle class="st0" cx="844.3" cy="29.3" r="1.5"/>
	</g>
	<circle class="st1" cx="1131.2" cy="843.2" r="1"/>
	<circle class="st1" cx="1101.3" cy="809.3" r="2.9"/>
	<circle class="st0" cx="1210.6" cy="680.9" r="2.9"/>
	<circle class="st0" cx="1137.3" cy="701.1" r="1.5"/>
	<circle class="st0" cx="1205.4" cy="722.2" r="2.9"/>
	<circle class="st0" cx="1137.1" cy="781.3" r="2.9"/>
	<circle class="st0" cx="1187.3" cy="838.4" r="1.5"/>
	<circle class="st0" cx="1176.4" cy="767.9" r="2.9"/>
	<circle class="st0" cx="1183.7" cy="692.2" r="1.5"/>
	<circle class="st1" cx="1222.1" cy="789.5" r="1.6"/>
	<circle class="st1" cx="1244.9" cy="728.4" r="1.1"/>
	<circle class="st1" cx="1086.4" cy="747.4" r="2.7"/>
	<circle class="st1" cx="1155.2" cy="664.6" r="1.5"/>
	<circle class="st0" cx="1087.1" cy="878.1" r="1.5"/>
</g>
<g>
	<g>
		<circle class="st0" cx="275.3" cy="749.5" r="2.9"/>
		<circle class="st0" cx="200" cy="760.8" r="1.5"/>
		<circle class="st0" cx="265.2" cy="789.8" r="2.9"/>
		<circle class="st0" cx="325" cy="836.9" r="1.5"/>
		<circle class="st0" cx="570.7" cy="716.7" r="2.9"/>
		<circle class="st0" cx="495.5" cy="728.1" r="1.5"/>
		<circle class="st0" cx="560.7" cy="757.1" r="2.9"/>
		<circle class="st0" cx="620.4" cy="804.1" r="1.5"/>
		<circle class="st0" cx="485.8" cy="807.6" r="2.9"/>
		<circle class="st0" cx="528.9" cy="870.3" r="1.5"/>
		<circle class="st0" cx="526.5" cy="799" r="2.9"/>
		<circle class="st0" cx="542.7" cy="724.7" r="1.5"/>
		<circle class="st0" cx="176.7" cy="917.2" r="2.9"/>
		<circle class="st0" cx="101.5" cy="928.6" r="1.5"/>
		<circle class="st0" cx="166.6" cy="957.6" r="2.9"/>
		<circle class="st0" cx="226.4" cy="1004.6" r="1.5"/>
		<circle class="st0" cx="91.8" cy="1008.1" r="2.9"/>
		<circle class="st0" cx="134.8" cy="1070.8" r="1.5"/>
		<circle class="st0" cx="132.5" cy="999.5" r="2.9"/>
		<circle class="st0" cx="148.7" cy="925.2" r="1.5"/>
		<circle class="st1" cx="138" cy="1036.9" r="2"/>
		<circle class="st1" cx="198.1" cy="942.8" r="1.5"/>
		<circle class="st1" cx="247.6" cy="833.8" r="1.5"/>
		<circle class="st1" cx="383.5" cy="978.9" r="1.5"/>
		<circle class="st1" cx="362.8" cy="1120.6" r="1.8"/>
		<circle class="st1" cx="454.8" cy="1060.6" r="1"/>
		<circle class="st1" cx="490.9" cy="1033.4" r="2.9"/>
		<circle class="st1" cx="569.3" cy="825.9" r="1.6"/>
		<circle class="st1" cx="599.2" cy="767.9" r="1.1"/>
		<circle class="st1" cx="439.5" cy="768" r="2.7"/>
		<circle class="st1" cx="517.7" cy="694" r="1.5"/>
		<circle class="st0" cx="610.4" cy="1152.4" r="2.9"/>
		<circle class="st0" cx="596" cy="1077.7" r="1.5"/>
		<circle class="st0" cx="569.7" cy="1144" r="2.9"/>
		<circle class="st0" cx="516.1" cy="1071.3" r="2.9"/>
		<circle class="st0" cx="455.2" cy="1116.9" r="1.5"/>
		<circle class="st0" cx="526.3" cy="1111.6" r="2.9"/>
		<circle class="st0" cx="601.3" cy="1124.7" r="1.5"/>
		<circle class="st1" cx="501.3" cy="1155.5" r="1.6"/>
		<circle class="st1" cx="560.4" cy="1182.9" r="1.1"/>
		<circle class="st1" cx="553.8" cy="1023.4" r="2.7"/>
		<circle class="st1" cx="631" cy="1098.4" r="1.5"/>
		<circle class="st0" cx="313.6" cy="945.7" r="1.5"/>
		<circle class="st0" cx="547.8" cy="939.3" r="1.5"/>
		<circle class="st0" cx="531.2" cy="843.6" r="1.5"/>
		<circle class="st0" cx="420.8" cy="787.7" r="1.5"/>
		<circle class="st0" cx="311.2" cy="752.2" r="1.5"/>
		<circle class="st0" cx="195.9" cy="782.5" r="1.5"/>
		<circle class="st0" cx="169.1" cy="909.2" r="1.5"/>
		<circle class="st0" cx="211.9" cy="1059.8" r="1.5"/>
		<circle class="st0" cx="298.1" cy="1122.2" r="1.5"/>
		<circle class="st0" cx="329.2" cy="1076.2" r="1.5"/>
		<circle class="st0" cx="423.4" cy="1013.9" r="1.5"/>
		<circle class="st0" cx="483" cy="920.2" r="1.5"/>
		<circle class="st0" cx="641.8" cy="758.3" r="1.5"/>
	</g>
	<g>
		<circle class="st0" cx="553.5" cy="957.9" r="2.9"/>
		<circle class="st0" cx="478.3" cy="969.2" r="1.5"/>
		<circle class="st0" cx="543.5" cy="998.2" r="2.9"/>
		<circle class="st0" cx="603.2" cy="1045.3" r="1.5"/>
		<circle class="st0" cx="849" cy="925.1" r="2.9"/>
		<circle class="st0" cx="773.8" cy="936.5" r="1.5"/>
		<circle class="st0" cx="838.9" cy="965.5" r="2.9"/>
		<circle class="st0" cx="898.7" cy="1012.5" r="1.5"/>
		<circle class="st0" cx="764.1" cy="1016" r="2.9"/>
		<circle class="st0" cx="807.1" cy="1078.7" r="1.5"/>
		<circle class="st0" cx="804.7" cy="1007.4" r="2.9"/>
		<circle class="st0" cx="821" cy="933.1" r="1.5"/>
		<circle class="st0" cx="455" cy="1125.6" r="2.9"/>
		<circle class="st0" cx="379.7" cy="1137" r="1.5"/>
		<circle class="st0" cx="444.9" cy="1166" r="2.9"/>
		<circle class="st0" cx="504.7" cy="1213" r="1.5"/>
		<circle class="st0" cx="370.1" cy="1216.5" r="2.9"/>
		<circle class="st0" cx="413.1" cy="1279.2" r="1.5"/>
		<circle class="st0" cx="410.7" cy="1207.9" r="2.9"/>
		<circle class="st0" cx="427" cy="1133.6" r="1.5"/>
		<circle class="st1" cx="416.3" cy="1245.3" r="2"/>
		<circle class="st1" cx="476.4" cy="1151.2" r="1.5"/>
		<circle class="st1" cx="525.9" cy="1042.2" r="1.5"/>
		<circle class="st1" cx="661.8" cy="1187.3" r="1.5"/>
		<circle class="st1" cx="641.1" cy="1328.9" r="1.8"/>
		<circle class="st1" cx="733" cy="1269" r="1"/>
		<circle class="st1" cx="769.2" cy="1241.8" r="2.9"/>
		<circle class="st1" cx="847.6" cy="1034.3" r="1.6"/>
		<circle class="st1" cx="877.4" cy="976.3" r="1.1"/>
		<circle class="st1" cx="717.7" cy="976.4" r="2.7"/>
		<circle class="st1" cx="795.9" cy="902.4" r="1.5"/>
		<circle class="st1" cx="374.7" cy="964.8" r="2.2"/>
		<circle class="st0" cx="888.7" cy="1360.8" r="2.9"/>
		<circle class="st0" cx="874.2" cy="1286.1" r="1.5"/>
		<circle class="st0" cx="848" cy="1352.4" r="2.9"/>
		<circle class="st0" cx="794.4" cy="1279.7" r="2.9"/>
		<circle class="st0" cx="733.5" cy="1325.3" r="1.5"/>
		<circle class="st0" cx="804.6" cy="1320" r="2.9"/>
		<circle class="st0" cx="879.5" cy="1333.1" r="1.5"/>
		<circle class="st1" cx="779.5" cy="1363.9" r="1.6"/>
		<circle class="st1" cx="838.7" cy="1391.3" r="1.1"/>
		<circle class="st1" cx="832" cy="1231.8" r="2.7"/>
		<circle class="st1" cx="909.2" cy="1306.8" r="1.5"/>
		<circle class="st0" cx="591.8" cy="1154.1" r="1.5"/>
		<circle class="st0" cx="826.1" cy="1147.7" r="1.5"/>
		<circle class="st0" cx="809.4" cy="1052" r="1.5"/>
		<circle class="st0" cx="699.1" cy="996.1" r="1.5"/>
		<circle class="st0" cx="589.5" cy="960.6" r="1.5"/>
		<circle class="st0" cx="474.1" cy="990.9" r="1.5"/>
		<circle class="st0" cx="447.4" cy="1117.6" r="1.5"/>
		<circle class="st0" cx="490.1" cy="1268.2" r="1.5"/>
		<circle class="st0" cx="576.3" cy="1330.5" r="1.5"/>
		<circle class="st0" cx="607.5" cy="1284.6" r="1.5"/>
		<circle class="st0" cx="701.7" cy="1222.3" r="1.5"/>
		<circle class="st0" cx="761.3" cy="1128.6" r="1.5"/>
		<circle class="st0" cx="920.1" cy="966.7" r="1.5"/>
	</g>
	<circle class="st1" cx="86.3" cy="1189.4" r="1"/>
	<circle class="st1" cx="122.4" cy="1162.2" r="2.9"/>
	<circle class="st0" cx="241.9" cy="1281.2" r="2.9"/>
	<circle class="st0" cx="227.5" cy="1206.5" r="1.5"/>
	<circle class="st0" cx="201.2" cy="1272.8" r="2.9"/>
	<circle class="st0" cx="147.6" cy="1200.1" r="2.9"/>
	<circle class="st0" cx="86.7" cy="1245.7" r="1.5"/>
	<circle class="st0" cx="157.8" cy="1240.4" r="2.9"/>
	<circle class="st0" cx="232.8" cy="1253.5" r="1.5"/>
	<circle class="st1" cx="132.7" cy="1284.2" r="1.6"/>
	<circle class="st1" cx="191.9" cy="1311.7" r="1.1"/>
	<circle class="st1" cx="185.3" cy="1152.2" r="2.7"/>
	<circle class="st1" cx="262.4" cy="1227.2" r="1.5"/>
	<circle class="st0" cx="54.9" cy="1142.7" r="1.5"/>
</g>
<linearGradient id="SVGID_1_" gradientUnits="userSpaceOnUse" x1="-124.379" y1="88.0139" x2="818.9596" y2="88.0139">
	<stop  offset="8.641287e-02" style="stop-color:#212151"/>
	<stop  offset="0.2249" style="stop-color:#212172"/>
	<stop  offset="1" style="stop-color:#000000"/>
</linearGradient>
<path class="st2" d="M815.1-20c-7.1-13.6-23-22.4-39.5-26c-16.5-3.6-33.7-2.8-50.7-2c-40.6,2-85.9,5.8-112.8,32.7
	c-21.5,21.5-27.4,54.4-54.5,70.3c-32.3,18.9-77.7,3.7-112.9,17.8c-26.8,10.7-42.3,36.2-67.3,49.9c-23.7,13-53.7,13.9-81.1,9.2
	c-27.4-4.7-53.3-14.5-79.9-21.9C167.2,96.5,115.1,91.3,63.7,94.8C1.9,99-61.4,117.4-103.4,157.6c-9.1,8.7-17.3,18.8-20.1,30.4
	c-3.8,15.9,5.1,33.8,24.7,36.4c16.7,2.2,35.9-6.6,50.6-12.9c11.6-5,22.1-11.6,32.7-17.9c17.6-10.5,35.6-20.1,55.3-27.3
	c22.4-8.1,46.1-13.5,70.2-15.6c43.8-3.8,87.7,2.6,131.6,5.2c117.8,7.2,237.6-13.2,343.9-58.4c28-11.9,55.4-25.6,85.6-32
	c21.9-4.7,44.6-5.3,66.8-8.5c22.2-3.2,44.8-9.3,61.3-22.9C815.8,20.5,824.5-1.9,815.1-20z M43.6,125.9c-4.9,0-8.9-3.5-8.9-7.9
	s4-7.9,8.9-7.9s8.9,3.5,8.9,7.9S48.5,125.9,43.6,125.9z M96,118c-4.9,0-8.9-3.5-8.9-7.9c0-4.3,4-7.9,8.9-7.9s8.9,3.5,8.9,7.9
	C104.9,114.5,100.9,118,96,118z M487.5,88c-4.9,0-8.9-3.5-8.9-7.9c0-4.3,4-7.9,8.9-7.9s8.9,3.5,8.9,7.9
	C496.4,84.5,492.4,88,487.5,88z"/>
<linearGradient id="SVGID_2_" gradientUnits="userSpaceOnUse" x1="625.7901" y1="159.044" x2="653.4896" y2="596.6955" gradientTransform="matrix(0.9924 -0.123 0.123 0.9924 -52.5012 46.1264)">
	<stop  offset="8.641287e-02" style="stop-color:#212151"/>
	<stop  offset="0.2249" style="stop-color:#212172"/>
	<stop  offset="1" style="stop-color:#000000"/>
</linearGradient>
<path class="st3" d="M1059.6,68.5C1013.5,84.5,615,432.6,567.8,444.9c-66.8,17.4-128.9,49-190.4,80.4
	c53.5-50.4,116.9-90.1,185.5-116.2c72.8-27.7,503.4-384.7,562.1-435.9c1.2-1.1,2.4-2.1,3.6-3.2c-2.4-5.2-5.5-10-9.7-14.1
	c-19-18.7-399.6,328.6-425.1,336.3c-73.7,22.4-141.9,63.1-196.6,117.4c-17.9,17.8-34.6,37.2-55.4,51.6
	c-20.8,14.4-46.9,23.5-71.4,17.5c-29.2-7.1-49.2-32.9-73.4-50.7c-62.9-46.6-154.3-36.1-221.4,4.3c-2.1,1.2-4.1,2.5-6.2,3.8
	c-16.7,10.6-32.4,22.9-47.1,36.1c-14.8,13.3-28.6,27.7-41.7,42.7c-13.2,15.1-25.8,30.8-38,46.7c-5.7,7.4-11.4,14.8-17.3,22
	c-5.4,6.5-10.9,12.9-15.5,20c-2.8,4.4-6.6,10.5-5,16c0.7,2.6,2.7,4.5,5.1,5.9c-3-0.6-6-1.1-8.9-1.3c0.8,9.2,4.1,18.8,6.1,27.9
	c3.7,16.6,7.4,33.2,11,49.8c3.6,16.4,7.2,32.7,10.9,49.1c1.2,5.3,2.4,10.6,3.6,15.9c0.1-0.3,0.3-0.5,0.4-0.8
	c10.7-22.3,23.5-43.4,38.5-63.1C1.4,663.9,39.3,631,82.2,607c24.2-13.6,50-24.3,76.7-31.6c-53,17.3-97.7,58.5-119.4,109.9
	c66.2-50.6,148.8-73.8,229.1-96c94.3-26,188.5-52,282.8-78c24.7-6.8,49.5-13.7,72.3-25.4c25.8-13.4,48.1-32.6,72.5-48.5
	C725.9,417.8,1307.4-9.4,1341.9-18c-1.2-9-201.3,51.8-202.4,42.8C1115.8,44,1088.4,58.4,1059.6,68.5z M632.1,323.1
	c11.6-1.4,22.1,5.8,23.4,16.2c1.3,10.4-7.1,20-18.7,21.4c-11.6,1.4-22.1-5.8-23.4-16.2C612.2,334.2,620.5,324.6,632.1,323.1z
	 M-11.1,564.1c-5.8,0.7-11-2.9-11.7-8.1c-0.6-5.2,3.5-10,9.3-10.7c5.8-0.7,11,2.9,11.7,8.1C-1.1,558.6-5.3,563.4-11.1,564.1z
	 M46.8,513.7c-5.8,0.7-11-2.9-11.7-8.1c-0.6-5.2,3.5-10,9.3-10.7c5.8-0.7,11,2.9,11.7,8.1C56.8,508.2,52.6,513,46.8,513.7z
	 M156.6,551.4c-33.3,4.1-63.3-16.7-67-46.4c-3.7-29.8,20.3-57.3,53.7-61.4c33.3-4.1,63.3,16.7,67,46.4
	C214,519.7,189.9,547.2,156.6,551.4z M253.9,462.9c-11.6,1.4-22.1-5.8-23.4-16.2c-1.3-10.4,7.1-20,18.7-21.4
	c11.6-1.4,22.1,5.8,23.4,16.2C273.9,451.9,265.5,461.5,253.9,462.9z"/>
<polygon class="st0" points="1020.2,943.3 1038.1,946.7 1020.2,949.7 1016.9,982.4 1013.7,949.7 996.1,946.7 1013.7,943.3 
	1016.9,913.5 "/>
<polygon class="st1" points="983.4,918.3 991.1,919.8 983.4,921.1 982,935 980.7,921.1 973.2,919.8 980.7,918.3 982,905.6 "/>
<polygon class="st0" points="40.2,36.3 29.6,34.3 40.2,32.5 42.1,13.2 44.1,32.5 54.5,34.3 44.1,36.3 42.1,54 "/>
<polygon class="st1" points="61.1,56.1 56.5,55.2 61.1,54.5 61.9,46.2 62.7,54.5 67.1,55.2 62.7,56.1 61.9,63.6 "/>
<linearGradient id="SVGID_3_" gradientUnits="userSpaceOnUse" x1="-41.7765" y1="770.5408" x2="1496.6053" y2="770.5408">
	<stop  offset="8.641287e-02" style="stop-color:#212151"/>
	<stop  offset="0.2249" style="stop-color:#212172"/>
	<stop  offset="1" style="stop-color:#000000"/>
</linearGradient>
<path class="st4" d="M1496.5,373.6c-0.2-4.9-1.1-9.8-2.7-14.6c-3.1-9.6-8.7-18.7-16.3-26.8c-13.3-14.3-38.4-31-62.9-31.2
	c-5.2,0-10.3,1.4-15.3,2.3c-7.2,1.3-14.6,2.1-21.8,3.4c-13.8,2.5-27.3,5.9-40.3,10.2c-27,8.8-52,20.8-74.9,34.8
	c-25.8,15.7-49,33.9-69.9,53.4c-55.8,52.3-96.7,113-151.4,166c-54.7,53-128.6,99.9-216.7,108.2c112.7-3.8,222.7-42,300.2-104.2
	c-5.7,56.1-71.3,99.7-141.6,117.7c-70.3,18.1-146.2,16.8-220.2,21.7c-74,4.9-151.7,17.8-204.7,57.2c-33.9,25.2-54.5,59-86.9,85.4
	c-33.5,27.3-77.8,45.2-121.2,62.7c-84,33.8-168,67.5-252,101.3c-41.6,16.7-84.6,34.3-113,62.7c-27.8,27.8-37.6,69.1-11.3,97.4
	c8.5-8.3,17-16.6,26.7-24.2c24.3-19.1,52.8-35.1,83-48.5c60.7-26.9,127.8-44.3,191.7-66.6c63.9-22.2,126.6-50.6,168.4-93.4
	c-11.2,15.3-22.4,30.5-33.6,45.8C481,972.9,534,927.6,590.7,888.5c56.7-39.1,127.1-74.9,203.5-69.8c-88.9,15.6-162.5,62.8-222,115.3
	s-108.4,111.5-170.5,162.3c-44.3,36.2-94.8,67.8-145.1,99.2c-15.9,10-31.9,19.9-47.8,29.9c61.8,4,123.6,8,185.4,12
	c58.5,3.8,120.9,7,172.3-14.5c61.4-25.6,90.6-78.8,127.1-124.1c72.8-90.4,185.7-157.7,299.8-218.9
	c114.1-61.2,233.2-119.4,326.4-198.3s159-183.8,141.4-288.9c11.3-1.6,22.6-3.2,33.9-4.8C1496.9,387.5,1496.6,375.2,1496.5,373.6z
	 M1352,572.9c-20.5,46.2-62.6,79.1-105.7,105.7c-85.5,52.7-181.4,88.3-280.6,104c112.2-29.5,205.6-122,236.2-234
	c-8.4,4.1-16.7,8.3-25.1,12.4c-1.3-37.2,14.8-74.7,42.7-99.3c16.4-14.4,36.6-24.3,57.9-28.8c13.5-2.8,36.3-7.6,47.4,3.2
	c11.4,11.1,21.9,22.9,28.4,37.5C1367.1,504.7,1365.7,542.2,1352,572.9z"/>
<linearGradient id="SVGID_4_" gradientUnits="userSpaceOnUse" x1="992.2057" y1="977.4455" x2="1935.5443" y2="977.4455">
	<stop  offset="8.641287e-02" style="stop-color:#212151"/>
	<stop  offset="0.2249" style="stop-color:#212172"/>
	<stop  offset="1" style="stop-color:#000000"/>
</linearGradient>
<path class="st5" d="M1931.7,869.5c-7.1-13.6-23-22.4-39.5-26c-16.5-3.6-33.7-2.8-50.7-2c-40.6,2-85.9,5.8-112.8,32.7
	c-21.5,21.5-27.4,54.4-54.5,70.3c-32.3,18.9-77.7,3.7-112.9,17.8c-26.8,10.7-42.3,36.2-67.3,49.9c-23.7,13-53.7,13.9-81.1,9.2
	c-27.4-4.7-53.3-14.5-79.9-21.9c-49.2-13.6-101.3-18.8-152.6-15.3c-61.8,4.2-125.1,22.6-167.2,62.8c-9.1,8.7-17.3,18.8-20.1,30.4
	c-3.8,15.9,5.1,33.8,24.7,36.4c16.7,2.2,35.9-6.6,50.6-12.9c11.6-5,22.1-11.6,32.7-17.9c17.6-10.5,35.6-20.1,55.3-27.3
	c22.4-8.1,46.1-13.5,70.2-15.6c43.8-3.8,87.7,2.6,131.6,5.2c117.8,7.2,237.6-13.2,343.9-58.4c28-11.9,55.4-25.6,85.6-32
	c21.9-4.7,44.6-5.3,66.8-8.5c22.2-3.2,44.8-9.3,61.3-22.9C1932.4,910,1941.1,887.5,1931.7,869.5z M1160.1,1015.3
	c-4.9,0-8.9-3.5-8.9-7.9c0-4.3,4-7.9,8.9-7.9c4.9,0,8.9,3.5,8.9,7.9C1169.1,1011.8,1165.1,1015.3,1160.1,1015.3z M1212.5,1007.4
	c-4.9,0-8.9-3.5-8.9-7.9s4-7.9,8.9-7.9c4.9,0,8.9,3.5,8.9,7.9S1217.5,1007.4,1212.5,1007.4z M1604.1,977.4c-4.9,0-8.9-3.5-8.9-7.9
	c0-4.3,4-7.9,8.9-7.9c4.9,0,8.9,3.5,8.9,7.9C1613,973.9,1609,977.4,1604.1,977.4z"/>
</svg>
